<?xml version="1.0" encoding="UTF-8"?>
<svg viewBox="0 0 600 550" xmlns="http://www.w3.org/2000/svg">
 <defs>
  <filter id="a">
   <feGaussianBlur stdDeviation="12.06001"/>
  </filter>
  <filter id="c">
   <feGaussianBlur stdDeviation="6.54083"/>
  </filter>
  <linearGradient id="b" x1="782.9" x2="797.93" y1="375.79" y2="-38.888" gradientTransform="matrix(-.49473 .51056 -.51056 -.49473 626.65 345.43)" gradientUnits="userSpaceOnUse">
   <stop stop-color="#920309" offset="0"/>
   <stop stop-color="#920309" stop-opacity="0" offset="1"/>
  </linearGradient>
 </defs>
 <g transform="translate(-108.83 -279.02)">
  <g transform="matrix(-.43531 .44924 -.44924 -.43531 826.67 379.38)" filter="url(#a)" opacity=".29312">
   <path d="m1101.2 183.83c-16.396 38.336-41.233 36.199-96.986 31.744-140.67-15.005-169.87-15.854-210.08-13.805-57.295 1.0248-198.88 33.812-228.87 32.079-13.959-0.80634-53.03-14.631-83.454-17.51-24.275-1.5133-32.047-0.7924-64.191 5.4596-4.3188-28.305-7.8768-43.748-12.651-54.05 4.3736-8.3046 35.691-36.997 67.992-43.074 35.738 3.741 31.173 34.549 112.8 16.139 15.905-1.0659 123.07-31.626 207.35-31.626s157.89 12.131 213.16 20.695 100.06 4.3388 94.936 53.947z"/>
   <path d="m690.45 120.34c-19.812 11.83 11.578 14.005-98.717 40.99-22.715 5.5402-45.839 11.582-59.379 9.2182s-17.477-24.481-17.477-28.347c23.911 5.2494 36.585 4.099 63.876 0.34158 45.395-9.5643 90.519-20.028 111.7-22.203z"/>
   <path d="m1099.7 162.87c0 4.8081-13.671-11.101-32.621-11.101s-35.097-13.68-35.097-18.488c17.292 2.664 24.548 1.8316 42.612 7.5575 17.242 5.4653 22.246 14.278 25.106 22.032z"/>
   <path d="m1117.9 288.85c-4.8023-30.607-40.509-34.508-96.261-30.054-140.67 15.005-155.86 14.042-224.09 9.5777-57.295-1.0248-197.85-31.146-228.09-32.795-32.557-7.8889-55.746-15.449-88.585-19.815-24.275 0.30567-38.568-2.3086-63.225 5.9314-4.3188 28.305-10.492 56.931-10.919 83.175-1.6931 1.1081 37.754 39.239 66.984 44.948 24.018-3.9256 33.629-32.378 116.96-16.702 48.696 5.1648 122.05 31.284 206.33 32.309 64.468 5.4653 171.62-11.645 226.93-19.971 60.101-9.0472 93.539-6.9957 93.97-56.604z"/>
   <path d="m684.64 267.76c2.5305 2.5934 23.512 31.378 37.953 38.637 68.79 18.928 224.74 5.4192 315.86-7.3111 9.1488-3.8455 18.972-21.869 21.611-25.071 2.0135-6.4423 54.66-12.912 57.558 14.051 1.0514 13.917-4.0472 29.389-8.512 32.775-6.1933 6.0481-3.1738 5.4401-21.79 13.507-75.148 18.846-145.07 25.439-238.04 32.271-98.762 0.1195-125.49-7.9001-199.44-21.921-80.719-20.784-127.03-14.72-135.99-11.554-5.8663 0 2.6083-31.359 3.5745-38.916 4.4339-29.464 3.459-47.63 10.368-49.274 6.6482-1.644 36.146 1.6429 70.953 7.0962 32.412 5.0782 66.831 4.6392 85.895 15.71z"/>
   <path d="m242.32 171.26c47.966-3.694 69.054-6.3144 79.022-6.8775 0.68064 1.3688 1.1051 2.7584 2.3001 5.3103 7.2333-1.071 16.928-1.2212 23.589-0.99972s11.738 0.57326 24.952 3.1629c4.7604-4.4148 5.34-4.4179 6.8716-5.8721 0.18924 0 25.993 1.8676 25.974 1.6941-0.20361-1.839 4.3781 11.202 5.4636 16.025 3.5136 12.468 5.3738 25.403 7.0537 37.87-3.9845 25.769-8.358 54.263-10.567 83.583-12.297 0.5308-15.175 0.2318-29.448 0.8037-1.7735-2.1475-2.3691-2.6797-4.1528-5.8299-4.5164 1.4612-18.077 3.7202-24.604 3.7396s-19.852-1.0054-25.264-3.0377c-1.313 2.579-2.2272 4.3213-3.7424 5.776-43.825-3.555-53.699-5.8781-92.163-8.6463-59.814-13.663-95.643-21.824-151.32-35.866l0.14149-55.372c62.882-14.565 96.14-19.649 165.89-35.464z"/>
   <path transform="matrix(1.0002 0 0 .94951 67.085 152.31)" d="m340.08 69.904a58.693 47.582 0 1 1 -117.39 0 58.693 47.582 0 1 1 117.39 0z"/>
   <path transform="matrix(.62881 0 0 .59693 171.35 177.39)" d="m340.08 69.904a58.693 47.582 0 1 1 -117.39 0 58.693 47.582 0 1 1 117.39 0z"/>
   <path d="m410.27 272.15c-8.0061 0.52997-24.588 1.5078-30.631 2.1024-1.9593-3.0012-1.456-2.3459-3.2948-5.6672-6.3116 1.401-10.124 3.5795-25.307 3.5795-10.432 0-19.241-1.0825-28.406-4.5938l-5.9688 10.062-87.938 4.0938-152.38-49.344-0.0625 29.719c55.678 14.042 91.499 22.212 151.31 35.875 38.463 2.7683 48.331 5.07 92.156 8.625 1.5152-1.4546 2.437-3.2021 3.75-5.7812 5.412 2.0323 18.755 3.0819 25.281 3.0625s20.077-2.2888 24.594-3.75c1.7837 3.1502 2.3827 3.665 4.1562 5.8125 14.173-0.5679 17.501-0.326 29.46-0.9624l0.32097-3.9439c1.2387-14.335 1.73-16.996 2.9516-28.89z"/>
   <path d="m441.57 256.85c-14.899 0-26.969 7.7484-26.969 17.281s12.069 17.25 26.969 17.25c7.2084 0 13.751-1.8321 18.594-4.7813-1.6822 5.186-2.5652 11.773-2.25 18.875 0.70265 15.83 6.9863 28.146 14.031 27.5s12.203-14.014 11.5-29.844-6.9863-28.146-14.031-27.5h-0.125c-0.28487 0.03201-0.56551 0.11465-0.84375 0.1875 0.08588-0.56041 0.125-1.1127 0.125-1.6875v-0.15625c-0.1352-9.4771-12.187-17.125-27-17.125z" opacity=".82682"/>
   <path transform="matrix(.94004 .043335 -.045215 .98084 151.85 62.566)" d="m402.88 175.21a25.603 15.7 0 1 1 -0.00107 -0.1433" opacity=".82682"/>
   <path d="m494.08 139.7c30.715 2.8145 18.364 25.632 36.521 30.312 8.6713 3.1402 29.791 3.6093 27.412 15.054l4.2246 22.266c-2.3793 11.444-16.686 7.6936-29.103 8.3982l-52.159-12.998c-8.6713-3.1402-13.737-14.881-11.357-26.326l4.515-21.717c2.3793-11.444 11.276-18.129 19.947-14.989z" opacity=".82682"/>
   <path d="m76.354 231.63v0.75l152.38 49.344 87.938-4.0938 5.9375-10-246.25-36zm246.66 36.062 0.15625 0.0625v-0.03125l-0.15625-0.03125z" fill-rule="evenodd"/>
   <path d="m191.04 224.48c2.2421-0.48733 86.7 1.8361 89.812-0.3125 0.8376-0.59232 1.1814-11.626 0.34375-12.219s-87.373 0.08937-88.562-0.4375c-0.27597-0.12222-0.62942-0.70662-0.9375-1.0938l-0.65625 14.062z"/>
   <path d="m179.57231,226.54073c.24155-.17886.48965-.45367.71875-.5 1.7605-.35604 5.56517,2.54186 7.0625,2.09375 .06437-.01926.09565-.09783.15625-.125l1-21.125c-.03497-.01396-.05881-.08329-.09375-.09375-1.49733-.44811-6.58325,2.60604-8.34375,2.25-.18016-.03643-.33371-.23681-.5-.34375v17.84375z"/>
   <path d="m174.85356,204.41573c-1.8317.19333-3.70202,2.59044-5.6875,2.46875-.26305-.01612-.54564-.22352-.8125-.34375v22.1875c2.0677.11522 4.12957,3.0221 6.03125,2.78125 .15434-.01955.31241-.20994.46875-.28125v-26.8125z"/>
   <path d="m174.85 204.42v26.812c1.5876-0.72411 3.2489-3.5991 4.7188-4.6875v-17.844c-1.4587-0.93806-2.4733-4.15-4.25-4.375-0.15437-0.01955-0.3138 0.0774-0.46875 0.09375z"/>
   <path d="m188.51 206.88-1 21.125c1.349-0.60484 1.8302-3.027 2.9688-3.5312h0.5625l0.65625-14.062c-0.98905-1.2428-2.0714-3.0856-3.1875-3.5312z"/>
   <path d="m156.76 228.92c1.8094 0.73322 3.2057 3.6562 5.25 3.6562 0.18586 0 0.35309-0.14138 0.53125-0.1875v-29.719c-0.03133-0.00153-0.06242-0.03125-0.09375-0.03125-1.9911 0-3.8253 2.9357-5.6875 3.8125v22.469z"/>
   <path d="m136.23 226.98v-18.812c-1.7405 1.4511-5.0472 7.179-6.125 7.6562-1.1897 0.52687-53.131-0.49856-53.969 0.09375s0.34728 1.8243-0.09375 2.4688 53.969-0.65205 53.969 0.03125 4.5291 8.0669 5.7188 8.5938c0.06662 0.0295 0.40247-0.0496 0.5-0.03125z"/>
   <path d="m144.91606,226.54073v-18.625c-.67764.56078-1.31289,1.02396-1.8125,1.125-1.7605.35604-4.81517-1.85436-6.3125-1.40625-.14086.04216-.38176.38056-.5625.53125v18.8125c1.61633.30415 6.91876-.71818 8.6875-.4375z"/>
   <path d="m150.10356,204.07198c-1.41753.17952-3.47735,2.4285-5.1875,3.84375v18.625c.03042.00483.12815-.00568.15625,0 1.7605.35604 2.08329,5.24935 4.0625,5.5 .33203.04205.71929-.13351 1.09375-.28125v-27.65625c-.04289.00232-.08187-.03671-.125-.03125z"/>
   <path d="m150.22856,204.10323v27.65625c1.85765-.73291 4.11406-3.23484 5.90625-3.125 .22534.01381.41352.19555.625.28125v-22.46875c-.27325.12865-.53696.35811-.8125.375-2.10652.1291-3.79378-2.8228-5.71875-2.71875z"/>
   <path d="m162.54 202.67v29.719c2.0104-0.5205 3.5844-3.5975 5.5625-3.7188 0.08435-0.00517 0.16571 0.0578 0.25 0.0625v-22.188c-1.8878-0.85051-3.8394-3.7787-5.8125-3.875z"/>
   <path transform="matrix(1.1712 0 0 1.3202 83.494 116)" d="m283.98 80.09a57.847 39.974 0 0 1 -33.605 34.46" stroke="#000" stroke-width="1.1365"/>
   <path d="m323.2 169.8c-20.773 5.1378-37.422 19.823-42.45 41.655" stroke="#000" stroke-width="1.398"/>
   <path d="m1095.2 294.12c0 29.273-125.55 56.446-290.34 56.446s-305.37-42.203-305.37-71.475 137.85 30.131 302.64 30.131c163.84 0 292.25-44.003 293.75-14.902" opacity=".82682"/>
   <path d="m799.95 162.48c-84.28 0-191.44 30.559-207.34 31.625-81.626 18.41-80.593-7.9888-113.03-15.062-36.344 1.9397-48.268 17.608-63.625 31.219 0.62092 3.7234 1.2152 7.5996 1.8438 11.719 32.144-6.252 37.706-5.772 61.982-4.2587 30.424 2.8797 70.509 15.85 84.469 16.656 29.994 1.7325 172.6-31.592 229.89-32.616 40.216-2.0495 69.428-1.1924 210.09 13.812 46.927 3.7493 71.945 5.8494 88.469-16.438-17.108-10.285-46.471-10.836-79.594-15.969-55.271-8.5642-128.88-20.688-213.16-20.688z"/>
   <path d="m76.354 232.38-0.0625 29.719c55.445 13.983 91.261 22.158 150.62 35.719v-16.688l-150.56-48.75z"/>
   <path d="m322.95 267.7 0.59375 33.125c5.4286 2.0259 18.734 3.0818 25.25 3.0625 6.5262-0.0194 20.077-2.2888 24.594-3.75 0.09957 0.1758 0.1574 0.2773 0.25 0.4375l2.875-31.719-0.15625-0.28125c-6.3116 1.401-10.129 3.5938-25.312 3.5938-10.312 0-19.042-1.0529-28.094-4.4688z"/>
   <path d="m322.63 267.57-5.9688 10.062h-0.03125l2.9688 28.969h0.15625c1.5152-1.4546 2.437-3.2021 3.75-5.7812h0.03125l-0.625-33.156c-0.09275-0.03506-0.18843-0.05819-0.28125-0.09375z"/>
   <path d="m376.48 268.82-2.8438 31.75c1.536 2.6568 2.2079 3.3442 3.8125 5.2812l2.0625-31.781c-1.7061-2.6218-1.4923-2.4523-3.0312-5.25z"/>
   <path d="m327.51 269.23v32.656c6.3937 1.33 16.022 2.0156 21.281 2 2.7093-8e-3 6.6433-0.404 10.625-0.9688v-31.031c-2.3611 0.17501-5.0905 0.28125-8.375 0.28125-8.5681 0-16.055-0.73224-23.531-2.9375z" opacity=".42458"/>
   <path d="m323.25 283.75 0.12408 4.2409c3.7634 0.7568 20.87 2.9085 27.385 2.9978 6.5028 0.0892 19.959-1.8559 23.99-2.8835 0 0-0.01151-1.0474 0.19959-3.9867-4.6891 1.6403-8.5496 3.5448-23.733 3.5448-10.312 0-23.354-2.7998-27.966-3.9133z"/>
   <path d="m321.35 164.38c-9.9686 0.56316-31.066 3.181-79.031 6.875-69.753 15.815-103.02 20.904-165.91 35.469v0.34375l245.06-42.406c-0.04315-0.0912-0.0799-0.19055-0.125-0.28125z"/>
  </g>
  <path d="m230.55 789.75c-10.085-24.054 1.6874-34.282 27.958-57.389 67.975-56.661 81.068-69.411 97.654-88.37 24.481-26.186 71.384-104.06 85.219-116.78 6.4389-5.9201 29.658-17.455 44.195-29.869 11.247-10.247 14.306-14.052 25.49-31.214 14.596 10.382 23.083 15.506 29.789 17.845 1.8269 5.5799 1.0836 32.139-10.247 49.295-17.238 14.427-29.091-1.0354-56.353 43.649-6.4446 7.609-39.367 69.056-76.055 106.92s-74.181 65.649-102.09 86.751-45.507 43.063-65.563 19.166z" fill="#fa0b0d"/>
  <path d="m437.89 632.85c3.3099-14.05-11.332-0.89504 24.558-62.191 7.3991-12.616 14.751-25.635 21.707-30.688s18.606 2.8058 20.342 4.4885c-12.767 8.4566-17.767 14.651-27.959 28.547-15.464 24.557-30.407 49.383-38.649 59.844z" fill="#1b40f6"/>
  <path d="m240.65 798.18c-2.16-2.093 10.939-1.3092 19.188-9.8222s21.424-9.8122 23.584-7.7192c-8.7244 6.6089-11.509 10.231-21.945 15.853-9.9608 5.3666-16.098 3.7784-20.827 1.688z" fill="#1b40f6"/>
  <path d="m176.12 751.52c15.841 11.166 33.136-3.1765 55.405-30.162 54.493-69.725 61.539-76.132 93.248-104.84 25.402-25.293 100.12-75.326 114.02-88.191 17.717-11.192 31.207-18.318 47.464-31.17 10.43-11.039 17.826-16.322 24.858-30.985-10.836-14.262-21.009-29.497-32.613-41.112 0.23923-1.243-34.063-0.1206-49.352 10.526-8.6919 12.499-0.0935 29.202-43.413 59.815-23.518 19.628-67.186 41.213-104.33 78.627-30.519 26.583-69.477 82.168-89.812 110.64-22.098 30.938-37.576 45.067-15.478 66.856z" fill="#fa0b0d"/>
  <path d="m374.19 566.07c-2.2666 0.00787-24.332-3.0967-33.879 0.23133-38.448 22.664-100.27 98.604-134.21 145.08-2.255 5.784 1.5659 18.043 1.8553 20.622 2.0176 3.709-17.994 30.176-31.368 19.741-6.7097-5.5858-11.441-14.612-11.019-18.092-0.02104-5.4151-1.0623-3.794 3.4177-15.669 24.246-41.964 51.723-76.246 89.125-120.99 42.939-44.42 58.175-52.935 96.668-80.056 44.475-27.215 61.911-50.66 64.389-56.063 2.5537-2.6354 12.952 14.823 15.927 18.546 11.306 14.818 19.892 22.288 17.623 26.108-2.1555 3.7023-16.473 15.523-34.075 28.786-16.391 12.35-31.177 28.004-44.449 31.749z" fill="#1b40f6"/>
  <path d="m610.09 409.37c-19.221 23.156-27.223 33.771-31.31 38.494-0.91122-0.29008-1.7203-0.70428-3.3869-1.2783-2.6676 3.7158-6.8203 8.1364-9.8194 11.032s-5.3671 5.0235-12.283 9.8325c-0.08893 4.0604-0.33988 4.3222-0.3533 5.6432-0.08238 0.08502-12.154 10.864-12.068 10.931 0.91481 0.70908-6.9381-2.9094-9.5777-4.5216-7.1306-3.8489-13.751-8.644-20.084-13.317-9.8422-13.008-20.739-27.376-32.949-41.132 5.1146-5.7554 6.5015-6.918 12.458-13.579 1.7368 0.1381 2.2351 0.10222 4.4268 0.67222 1.3096-2.665 6.198-9.7406 9.0302-12.681s9.0934-8.4806 12.362-10.027c-0.58704-1.7125-0.9718-2.8817-0.96572-4.1956 20.675-18.141 26.017-21.565 44.004-37.64 32.176-20.923 51.439-33.466 81.984-52.367l24.814 24.168c-20.83 34.589-33.023 51.744-56.283 89.964z" fill="#c1d4ce"/>
  <path transform="matrix(-.43541 .44934 -.42656 -.41333 694.88 338.89)" d="m340.08 69.904a58.693 47.582 0 1 1 -117.39 0 58.693 47.582 0 1 1 117.39 0z" fill="#273136"/>
  <path transform="matrix(-.27373 .28249 -.26817 -.25985 638.23 374.82)" d="m340.08 69.904a58.693 47.582 0 1 1 -117.39 0 58.693 47.582 0 1 1 117.39 0z" fill="#c3d7d1"/>
  <path d="m491.65 440.9c3.2471-3.8274 10.026-11.703 12.389-14.676 2.2012 0.42625 1.6877 0.3671 3.9802 0.98684 2.1182-3.4453 2.7992-6.1066 9.4086-12.927 4.5412-4.6865 8.8622-8.1727 14.429-10.762l-1.9222-7.0618 36.441-41.287 88.498-46.974-13.324-12.965c-30.545 18.9-49.809 31.436-81.985 52.359-17.987 16.074-23.317 19.505-43.992 37.646-0.00612 1.3139 0.37766 2.4887 0.96474 4.2013-3.2689 1.5466-9.5488 7.084-12.381 10.024s-7.7117 10.016-9.0213 12.681c-2.1917-0.57-2.6837-0.52499-4.4205-0.66309-5.9145 6.6143-7.4719 8.004-12.392 13.654l1.632 1.861c5.9008 6.7968 6.8821 8.1757 11.694 13.902z" fill="#425961"/>
  <path d="m484.9 461.62c6.4858-6.6934 8.2589-15.489 3.9764-19.638s-13.003-2.087-19.489 4.6064c-3.1379 3.2383-5.1629 6.9751-5.9461 10.434-1.5975-3.0132-4.1722-6.2773-7.5-9.2273-7.4175-6.5754-15.686-9.114-18.462-5.6677s0.9835 11.582 8.401 18.158 15.686 9.1139 18.462 5.6677l0.05442-0.05615c0.10963-0.14192 0.19467-0.30397 0.28306-0.46068 0.21438 0.28254 0.44547 0.54055 0.70368 0.79075l0.0702 0.06802c4.3164 4.0648 12.999 1.9797 19.447-4.6748z" fill="#fc3f6c" fill-opacity=".49007" opacity=".82682"/>
  <path transform="matrix(-.42868 .40344 -.42095 -.44728 698.3 416.05)" d="m402.88 175.21a25.603 15.7 0 1 1 -0.00107 -0.1433" fill="#fc3f6c" fill-opacity=".49007" opacity=".82682"/>
  <path d="m514.67 536.21c-14.635 12.573-19.509-2.9077-29.515 3.2117-5.1854 2.5286-14.59 11.812-18.695 5.7615l-11.842-7.7949c-4.1055-6.0507 3.8073-10.845 8.8959-16.73l28.545-17.774c5.1854-2.5286 12.665 0.30699 16.771 6.3577l7.7907 11.482c4.1055 6.0507 3.2361 12.958-1.9493 15.486z" fill="#fc3f6c" fill-opacity=".49007" opacity=".82682"/>
  <path d="m655.22 308.53-0.33693-0.32648-88.498 46.974-36.441 41.287 1.9078 7.0205 123.37-94.955zm-123.57 95.11c-0.03181 0.01502-0.06436 0.0279-0.09609 0.04298l0.01404 0.01361 0.08205-0.05659z" fill="#dfe8e5" fill-rule="evenodd"/>
  <path d="m608.51 363.17c-0.75708 1.2194-38.567 38.15-38.956 40.484-0.09853 0.63413 4.7088 5.5918 5.3396 5.4734s37.994-39.291 38.749-39.596c0.17504-0.07078 0.59144 0.02484 0.89947 0.05496l-6.0318-6.4164z" fill="#435256"/>
  <path d="m612.572,357.11661c-.0248.18638-.00934.41746-.08826.54055-.60642.94589-3.56451,1.39362-4.015,2.26135-.01937.0373.00231.08556-.01187.12461l9.05496,9.64523c.0215-.00963.06302.00984.08293-.0013 .85312-.4776 1.69503-4.09193 2.62134-4.72784 .0948-.06507.25166-.04683.37209-.07498l-8.01619-7.76762z" fill="#435256"/>
  <path d="m624.56565,364.62805c.71051-.90704.4478-2.79076 1.36677-3.62975 .12175-.11116.33794-.14783.50812-.21538l-9.96759-9.65851c-.95186.87875-3.15532.53963-3.87494,1.49879-.05841.07785-.04169.23174-.07771.33302l12.04535,11.67183z" fill="#435256"/>
  <path d="m624.57 364.63-12.045-11.672c-0.36579 1.0284 0.20259 3.0263 0.0517 4.1604l8.0162 7.7676c1.0564-0.24695 2.941 0.69542 3.8155-0.00479 0.07598-0.06084 0.10183-0.17466 0.16194-0.25139z" fill="#69817d"/>
  <path d="m617.51183,369.68835-9.05496-9.64523c-.31551.86932.56316,2.13991.29406,2.87089-.00178.00483-.24004.24494-.24486.2527l6.03181,6.41641c.98887.09668 2.28792.41266 2.97395.10523z" fill="#69817d"/>
  <path d="m621.43562,345.83438c-1.11704.49367-3.03803-.15148-3.92794.76691-.0809.0835-.09019.22017-.14702.32028l13.35096,12.93696c.01432-.01341.04121-.01443.05484-.02851 .86675-.89448.34634-2.99644.76311-4.2147l-10.09395-9.78094z" fill="#435256"/>
  <path d="m631.24 337.45 8.4514 8.1893c0.10577-1.4136-1.028-5.3925-0.77323-6.0845 0.2812-0.76382 23.353-23.652 23.451-24.286s-0.97073-0.63812-1.0683-1.1168-23.2 24.529-23.507 24.232-5.5956-1.477-6.3501-1.1719c-0.04225 0.01708-0.15291 0.2024-0.20361 0.23822z" fill="#435256"/>
  <path d="m627.66 341.55 8.3672 8.1077c0.04306-0.54854 0.11151-1.0356 0.28361-1.304 0.60642-0.94588 2.9292-1.356 3.3797-2.2237 0.04238-0.08163-0.00478-0.33717 0.0062-0.48396l-8.4514-8.1893c-0.84025 0.59373-2.6892 3.4208-3.5852 4.0933z" fill="#69817d"/>
  <path d="m635.49407,353.65891c.53642-.71497.42275-2.61934.53141-4.00369l-8.36716-8.1077c-.01541.01156-.05324.06004-.06802.07019-.92632.6359-3.26512-1.34921-4.2393-.56917-.16343.13086-.25314.38125-.34977.61379l12.42439,12.03913c.01763-.02028.05213-.0208.06845-.04255z" fill="#435256"/>
  <path d="m635.42562,353.70146-12.42439-12.03913c-.47941,1.15358-.33768,3.25638-1.16719,4.0137-.10429.09522-.26786.10065-.39842.15835l10.09395,9.78094c.06115-.17876.07286-.39712.18522-.52826 .859-1.00254 2.91961-.47553 3.71083-1.3856z" fill="#69817d"/>
  <path d="m630.71 359.86-13.351-12.937c-0.64132 1.1297 0.05584 3.1763-0.75081 4.1177-0.03439 0.04014-0.0981 0.04928-0.1369 0.0851l9.9676 9.6585c1.2039-0.47784 3.3689-0.07988 4.2711-0.92439z" fill="#69817d"/>
  <path transform="matrix(-.50983 .52615 -.59311 -.57472 704.06 362.07)" d="m283.98 80.09a57.847 39.974 0 0 1 -33.605 34.46" fill="none" stroke="#000" stroke-width="1.1365"/>
  <path d="m575.54 446.34c6.7347-11.569 7.3846-25.441-0.23406-37.204" fill="none" stroke="#000" stroke-width=".87453"/>
  <path d="m183.62 739.05c-13.151-12.743 29.295-80.974 101.03-155.01s151.89-118.82 165.04-106.07-73.542 48.81-145.28 122.84c-71.321 73.603-107.45 150.45-121.18 138.45" fill="#f9f9f9" fill-opacity=".10596" opacity=".82682"/>
  <path d="m371.29 663.7c36.688-37.862 69.608-99.306 76.052-106.91 27.263-44.684 38.672-32.728 55.971-44.222 14.95-17.172 13.102-29.349 13.672-42.173-1.943-1.3419-3.9431-2.7622-6.0672-4.273-11.184 17.162-13.821 19.452-25.068 29.699-14.538 12.414-37.814 24.776-44.253 30.696-13.835 12.72-60.942 91.291-85.423 117.48-16.586 18.959-29.687 31.709-97.662 88.371-22.112 19.45-33.946 29.774-31.127 46.899 12.068-3.2082 25.098-16.16 41.822-28.806 27.907-21.102 65.395-48.891 102.08-86.754z" fill="url(#b)"/>
  <path d="m654.88 308.2-13.324-12.965c-30.417 18.821-49.682 31.353-81.615 52.118l7.4968 7.2643 87.442-46.418z" fill="#182022"/>
  <path d="m531.67 403.61-15.14-14.153c-3.2732 1.5568-9.5397 7.0747-12.367 10.01s-7.7117 10.016-9.0213 12.681l-0.30537-0.07814 12.998 15.099 0.19437 0.05224c2.1182-3.4453 2.795-6.115 9.4044-12.936 4.489-4.6326 8.7622-8.0961 14.237-10.676z" fill="#182120"/>
  <path d="m531.86199,403.52509-1.92224-7.06177 .01361-.01403-14.30635-11.27677c-.02672.02345-.04124.04669-.06801.07019-.00612,1.3139.37766,2.48872.96474,4.2013-.00521.00249-.00839.01153-.01361.01404l15.16731,14.15257 .16455-.08553z" fill="#040305"/>
  <path d="m507.86 427.17-13.026-15.099c-1.8622-0.46652-2.4635-0.4639-4.0322-0.58623l13.38 14.761c1.9205 0.37483 1.7513 0.39714 3.6781 0.92362z" fill="#000609"/>
  <path d="m529 404.99-14.671-14.216c-3.3807 2.2934-7.8801 6.3204-10.162 8.6898-1.1758 1.2206-2.7104 3.1603-4.19 5.195l13.941 13.508c0.94918-1.1369 2.0896-2.4093 3.5194-3.8848 3.7298-3.8492 7.3181-6.894 11.563-9.2925z" fill=".42458" opacity=".42458"/>
  <path d="m524.33 396.76-1.9592-1.7904c-1.9782 1.3612-10.391 8.1095-13.268 10.998-2.8708 2.8825-7.8548 9.7745-9.1477 12.032 0 0 0.47555 0.45078 1.7041 1.8251 1.3044-2.8206 2.1293-5.384 8.7387-12.205 4.489-4.6326 11.424-9.273 13.932-10.86z" fill="#01080b"/>
  <path d="m578.78 447.87c4.0864-4.7235 12.094-15.341 31.315-38.497 23.26-38.22 35.457-55.383 56.287-89.972l-0.15442-0.14964-87.628 128.55c0.05975 0.02031 0.12038 0.04705 0.18076 0.06627z" fill="#fff" fill-opacity=".51656"/>
  <g transform="matrix(1 0 0 -1 9.0138 1080.8)" fill-opacity=".99519" filter="url(#c)" opacity=".297">
   <path d="m372.46 526.63-12.396-19.941-2.1558-14.552 12.935-10.24c29.385-5.5846 52.166-24.976 65.752-63.596l142.28-135.28c37.972-16.823 71.364 33.365 65.213 59.284l-140.67 136.89c-46.226 16.539-66.37 39.163-69.525 65.752l-12.396 11.318-15.63-0.53895-19.402-13.474-14.013-15.63z" filter="url(#a)"/>
   <path d="m594.54 279.64c-5.0614-0.03078-10.316 1.0093-15.656 3.375l-142.28 135.28c-13.586 38.62-36.365 58.009-65.75 63.594l-12.938 10.25 2.1562 14.562 12.406 19.938 8.0312 8.9688 22.671-36.527c30.324-12.619 47.605-36.098 68.411-60.42l155.89-142.62c-8.7908-9.5193-20.27-16.329-32.938-16.406z" filter="url(#a)"/>
   <path d="m606.82 285.73c-2.1838-0.06029-4.3535 0.27208-6.375 1.0625l-144.97 137.97c-10.555 11.998-14.325 21.476-13.562 27.562 1.4192 11.321 18.453 10.898 36.25-6.9688l146.53-139.16c4.0205-7.8107-2.7631-16.121-11.406-19.219-2.0924-0.74987-4.285-1.1897-6.4688-1.25zm-200.81 198.59c-4.0145-0.00975-8.9629 0.53683-14.688 1.3438l-14.896 12.838c1.6216 7.3396 11.86 21.954 21.927 21.943l15.062-13.219c8.3476-17.856 4.6372-22.877-7.4062-22.906z" filter="url(#a)"/>
   <path d="m637.63 315.9-168.91 161.9 3.7726 8.4057 168.48-161.32-3.3485-8.9901z" filter="url(#a)"/>
   <path d="m640.86 324.52 0.539 17.246-139.59 133.12c-9.0486 1.4559-19.102 5.4432-29.585 11.203l168.63-161.57z" filter="url(#a)"/>
   <path d="m406.42 537.41 28.025-26.947 3.2337 7.5453-26.947 25.87-4.3116-6.4674z" filter="url(#a)"/>
   <path d="m437.56 518.66-7.6685 22.646-7.6203 7.0813-11.545-4.8216 26.834-24.905z" filter="url(#a)"/>
   <path d="m468.4 477.95 21.019-25.159 142.82-135.28 5.9285-2.1558-169.77 162.59z" filter="url(#a)"/>
   <path d="m406.96 536.33z" filter="url(#a)"/>
   <path d="m419.88 519.62-6.7888 6.7888-6.8831 10.448 27.694-25.86-14.022 8.6232z" filter="url(#a)"/>
   <path d="m366.54 493.75 15.1-12.292-9.7107 3.1298-10.779 9.7011 4.8505 6.4674 0.53895-7.0064z" filter="url(#a)"/>
   <path d="m432.56 438.91 15.897-19.533 143.36-137.43-11.318 2.1558-141.74 134.74-6.1962 20.071z" filter="url(#a)"/>
   <path d="m362.07 506.51c7.0301-13.787 53.689 42.302 49.359 47.523-9.1924 7.5855-52.275-40.553-49.359-47.523z" filter="url(#a)"/>
   <path d="m373.5 516.15c3.6084-6.9702 27.558 21.386 25.335 24.025-4.7183 3.8348-26.832-20.502-25.335-24.025z" filter="url(#a)"/>
   <path d="m379.21 519.75-260.24 245-9.5209 19.042 3.0314 5.1871 4.1234 1.8137 20.773-8.905 257.66-245.37c1.3274-2.0932-13.154-19.91-15.833-16.773z" filter="url(#a)"/>
   <path d="m387.36 525.86-260.14 247.15-14.599 15.868 4.2131 1.542 20.624-9.2342 256.67-244.74c-0.20485-3.9537-3.8727-7.6753-6.7738-10.587z" filter="url(#a)"/>
   <path d="m393.38 533.81-258.31 244.86 1.5613-5.2044-13.112-2.344-4.194-5.9946-9.5141 18.666 2.9956 4.9503 3.8859 1.1332 20.135-8.3271 257.67-245.4c-0.23502-0.85086-0.44147-1.716-1.1176-2.3463z" filter="url(#a)"/>
   <path d="m146.93 762.54-5.7888 2.3094-12.317 12.317-11.578 9.8538 1.1353 1.259 16.355-8.1567 12.564-11.332-5.4196 0.73904 5.0498-6.99z" filter="url(#a)"/>
   <path d="m141.5 769.62-5.0346 0.40029 4.9269-4.9269 5.6042-2.2478-5.4965 6.7744z" filter="url(#a)"/>
   <path d="m123.49 771.49 262.01-247.57c1.3478 1.3325 2.4847 3.3854 3.8718 4.8556l-260.59 247.29-1.6646-3.2128-3.6247-1.3678z" filter="url(#a)"/>
   <path d="m374.99 523.14c7.1607 5.8984 12.017 18.042-1.0409 34.87l20.297-21.859c-2.4474-7.9455-8.752-12.99-14.052-17.175l-5.2044 4.1636z" filter="url(#a)" opacity=".41"/>
   <path d="m139.02 754.22-3.0484 5.6963-13.056 11.578-9.3611 12.317-2.2171-0.73903 8.8684-17.491 14.534-13.549-2.4634 6.1586 6.7436-3.9719z" filter="url(#a)"/>
   <path d="m132.03 758.44 0.49269 4.4342 3.9415-3.2025 2.1862-5.3267-6.6204 4.095z" filter="url(#a)"/>
   <path d="m621.88 292.48-176.87 165.56c5.9195 4.5528 19.297 1.2269 33.156-12.688l146.53-139.16c2.4854-4.8284 0.8467-9.8579-2.8125-13.719zm-206.94 193.72-29.344 27.469c3.7753 3.8628 8.2662 6.7862 12.75 6.7812l15.062-13.219c5.6474-12.08 5.7682-18.272 1.5312-21.031z" filter="url(#a)"/>
   <path d="m606.82 285.73c-2.1838-0.06029-4.3535 0.27208-6.375 1.0625l-144.97 137.97c-6.8518 7.7884-10.813 14.511-12.562 19.938l168.03-158.41c-1.3596-0.32373-2.7449-0.5244-4.125-0.5625zm-206.25 198.88c-2.8019 0.23413-5.8768 0.58702-9.25 1.0625l-14.906 12.844c0.39623 1.7934 1.328 4.0324 2.625 6.375l21.531-20.281z" filter="url(#a)"/>
  </g>
  <g transform="matrix(1 0 0 -1 41.276 1080.8)" fill-rule="evenodd">
   <path d="m372.46 526.63-12.396-19.941-2.1558-14.552 12.935-10.24c29.385-5.5846 52.166-24.976 65.752-63.596l142.28-135.28c37.972-16.823 71.364 33.365 65.213 59.284l-140.67 136.89c-46.226 16.539-66.37 39.163-69.525 65.752l-12.396 11.318-15.63-0.53895-19.402-13.474-14.013-15.63z" stroke="#000" stroke-linecap="round" stroke-linejoin="round" stroke-width="1.25"/>
   <path d="m594.54 279.64c-5.0614-0.03078-10.316 1.0093-15.656 3.375l-142.28 135.28c-13.586 38.62-36.365 58.009-65.75 63.594l-12.938 10.25 2.1562 14.562 12.406 19.938 8.0312 8.9688 22.671-36.527c30.324-12.619 47.605-36.098 68.411-60.42l155.89-142.62c-8.7908-9.5193-20.27-16.329-32.938-16.406z" fill="#333" stroke="#000" stroke-linecap="round" stroke-linejoin="round" stroke-width="1.25"/>
   <path d="m606.82 285.73c-2.1838-0.06029-4.3535 0.27208-6.375 1.0625l-144.97 137.97c-10.555 11.998-14.325 21.476-13.562 27.562 1.4192 11.321 18.453 10.898 36.25-6.9688l146.53-139.16c4.0205-7.8107-2.7631-16.121-11.406-19.219-2.0924-0.74987-4.285-1.1897-6.4688-1.25zm-200.81 198.59c-4.0145-0.00975-8.9629 0.53683-14.688 1.3438l-14.896 12.838c1.6216 7.3396 11.86 21.954 21.927 21.943l15.062-13.219c8.3476-17.856 4.6372-22.877-7.4062-22.906z" fill="#fc0"/>
   <path d="m637.63 315.9-168.91 161.9 3.7726 8.4057 168.48-161.32-3.3485-8.9901z" fill="#333" stroke="#000" stroke-linecap="round" stroke-linejoin="round" stroke-width="1.25"/>
   <path d="m640.86 324.52 0.539 17.246-139.59 133.12c-9.0486 1.4559-19.102 5.4432-29.585 11.203l168.63-161.57z" fill="#4d4d4d" stroke="#000" stroke-linecap="round" stroke-linejoin="round" stroke-width="1.25"/>
   <path d="m406.42 537.41 28.025-26.947 3.2337 7.5453-26.947 25.87-4.3116-6.4674z" fill="#333" stroke="#000" stroke-linecap="round" stroke-linejoin="round" stroke-width="1.25"/>
   <path d="m437.56 518.66-7.6685 22.646-7.6203 7.0813-11.545-4.8216 26.834-24.905z" fill="#4d4d4d" stroke="#000" stroke-linecap="round" stroke-linejoin="round" stroke-width="1.25"/>
   <path d="m468.4 477.95 21.019-25.159 142.82-135.28 5.9285-2.1558-169.77 162.59z" fill="#1a1a1a" stroke="#000" stroke-linecap="round" stroke-linejoin="round" stroke-width="1.25"/>
   <path d="m406.96 536.33v0z" fill="#fff" stroke="#000" stroke-linecap="round" stroke-linejoin="round" stroke-width="1.25"/>
   <path d="m419.88 519.62-6.7888 6.7888-6.8831 10.448 27.694-25.86-14.022 8.6232z" fill="#1a1a1a" stroke="#000" stroke-linecap="round" stroke-linejoin="round" stroke-width="1.25"/>
   <path d="m366.54 493.75 15.1-12.292-9.7107 3.1298-10.779 9.7011 4.8505 6.4674 0.53895-7.0064z" fill="#808080" stroke="#000" stroke-linecap="round" stroke-linejoin="round" stroke-width="1.25"/>
   <path d="m432.56 438.91 15.897-19.533 143.36-137.43-11.318 2.1558-141.74 134.74-6.1962 20.071z" fill="#808080" stroke="#000" stroke-linecap="round" stroke-linejoin="round" stroke-width="1.25"/>
   <path d="m362.07 506.51c7.0301-13.787 53.689 42.302 49.359 47.523-9.1924 7.5855-52.275-40.553-49.359-47.523z" fill="#1a1a1a"/>
   <path d="m373.5 516.15c3.6084-6.9702 27.558 21.386 25.335 24.025-4.7183 3.8348-26.832-20.502-25.335-24.025z" stroke="#000" stroke-linecap="round" stroke-linejoin="round" stroke-width="1.397"/>
   <path d="m379.21 519.75-260.24 245-9.5209 19.042 3.0314 5.1871 4.1234 1.8137 20.773-8.905 257.66-245.37c1.3274-2.0932-13.154-19.91-15.833-16.773z" fill="#f9f9f9" stroke="#000" stroke-linecap="round" stroke-linejoin="round" stroke-width="1.25"/>
   <path d="m387.36 525.86-260.14 247.15-14.599 15.868 4.2131 1.542 20.624-9.2342 256.67-244.74c-0.20485-3.9537-3.8727-7.6753-6.7738-10.587z" fill="#999"/>
   <path d="m393.38 533.81-258.31 244.86 1.5613-5.2044-13.112-2.344-4.194-5.9946-9.5141 18.666 2.9956 4.9503 3.8859 1.1332 20.135-8.3271 257.67-245.4c-0.23502-0.85086-0.44147-1.716-1.1176-2.3463z" fill="#808080"/>
   <path d="m146.93 762.54-5.7888 2.3094-12.317 12.317-11.578 9.8538 1.1353 1.259 16.355-8.1567 12.564-11.332-5.4196 0.73904 5.0498-6.99z" fill="#b3b3b3" stroke="#000" stroke-linecap="round" stroke-linejoin="round" stroke-width="1.25"/>
   <path d="m141.5 769.62-5.0346 0.40029 4.9269-4.9269 5.6042-2.2478-5.4965 6.7744z" fill="#ececec" stroke="#000" stroke-linecap="round" stroke-linejoin="round" stroke-width="1.25"/>
   <path d="m123.49 771.49 262.01-247.57c1.3478 1.3325 2.4847 3.3854 3.8718 4.8556l-260.59 247.29-1.6646-3.2128-3.6247-1.3678z" fill="#ccc"/>
   <path d="m374.99 523.14c7.1607 5.8984 12.017 18.042-1.0409 34.87l20.297-21.859c-2.4474-7.9455-8.752-12.99-14.052-17.175l-5.2044 4.1636z" fill="#999" opacity=".41"/>
   <path d="m139.02 754.22-3.0484 5.6963-13.056 11.578-9.3611 12.317-2.2171-0.73903 8.8684-17.491 14.534-13.549-2.4634 6.1586 6.7436-3.9719z" fill="#ccc" stroke="#000" stroke-linecap="round" stroke-linejoin="round" stroke-width="1.25"/>
   <path d="m132.03 758.44 0.49269 4.4342 3.9415-3.2025 2.1862-5.3267-6.6204 4.095z" fill="#808080" stroke="#000" stroke-linecap="round" stroke-linejoin="round" stroke-width="1.25"/>
   <path d="m621.88 292.48-176.87 165.56c5.9195 4.5528 19.297 1.2269 33.156-12.688l146.53-139.16c2.4854-4.8284 0.8467-9.8579-2.8125-13.719zm-206.94 193.72-29.344 27.469c3.7753 3.8628 8.2662 6.7862 12.75 6.7812l15.062-13.219c5.6474-12.08 5.7682-18.272 1.5312-21.031z" fill="#ffd42a"/>
   <path d="m606.82 285.73c-2.1838-0.06029-4.3535 0.27208-6.375 1.0625l-144.97 137.97c-6.8518 7.7884-10.813 14.511-12.562 19.938l168.03-158.41c-1.3596-0.32373-2.7449-0.5244-4.125-0.5625zm-206.25 198.88c-2.8019 0.23413-5.8768 0.58702-9.25 1.0625l-14.906 12.844c0.39623 1.7934 1.328 4.0324 2.625 6.375l21.531-20.281z" fill="#d4aa00"/>
  </g>
 </g>
</svg>
